<svg width="326" height="82" viewBox="0 0 326 82" fill="none" xmlns="http://www.w3.org/2000/svg">
<path d="M25.811 37.946C24.09 38.037 22.55 38.037 20.83 38.037H9.237V65.654H0V0H20.829C36.768 0 48.179 3.171 48.179 18.927C48.179 29.341 43.199 34.322 35.138 36.495L50.357 65.654H40.028L25.811 37.946ZM9.237 7.78799V30.247H21.557C31.246 30.247 38.672 29.247 38.672 19.109C38.672 8.97101 31.244 7.78799 21.557 7.78799H9.237Z" fill="#E63E3A"/>
<path d="M63.032 44.0131C63.304 54.5131 70.91 59.5871 78.065 59.5871C85.31 59.5871 89.294 56.3281 91.377 51.5281H99.888C97.716 59.8601 89.927 66.8351 78.064 66.8351C62.664 66.8351 54.155 55.7841 54.155 41.3861C54.155 25.9001 64.479 16.1201 77.792 16.1201C92.734 16.1201 101.518 28.5271 100.522 44.0131H63.032ZM63.122 36.9481H91.829C91.557 30.0661 86.577 23.1821 77.793 23.1821C70.549 23.1821 63.847 27.1681 63.122 36.9481Z" fill="#E63E3A"/>
<path d="M135.934 31.1489C134.576 25.3489 130.234 23.0869 124.434 23.0869C119.634 23.0869 114.201 24.8079 114.201 29.2459C114.201 33.1459 116.918 34.8619 121.627 35.8589L128.509 37.2149C137.384 38.8479 145.171 42.3769 145.171 51.7069C145.171 61.3959 136.478 66.8309 125.339 66.8309C112.57 66.8309 105.416 58.4069 104.42 49.8949H113.113C114.472 56.1419 118.276 59.8569 125.52 59.8569C131.769 59.8569 136.84 57.2309 136.84 52.6129C136.84 47.6309 132.221 45.7299 126.97 44.5509L119.724 43.1029C113.114 41.6529 105.87 38.7559 105.87 29.6079C105.87 21.0079 114.563 16.0259 125.34 16.0259C135.94 16.0259 143 21.8199 144.54 31.1489H135.934Z" fill="#E63E3A"/>
<path d="M161.564 16.936V24.636C164.553 19.474 169.623 16.123 177.503 16.123C188.732 16.123 198.332 25.541 198.332 41.48C198.332 57.689 188.732 66.837 177.503 66.837C169.624 66.837 164.553 63.484 161.564 58.321V81.505H153.323V16.936H161.564ZM175.419 59.769C183.842 59.769 189.365 53.1571 189.365 41.4771C189.365 29.7971 183.842 23.177 175.419 23.177C168.084 23.177 161.202 28.6121 161.202 41.4771C161.202 54.342 168.084 59.769 175.419 59.769Z" fill="#E63E3A"/>
<path d="M212.008 44.0131C212.279 54.5131 219.886 59.5871 227.041 59.5871C234.285 59.5871 238.27 56.3281 240.354 51.5281H248.865C246.692 59.8601 238.903 66.8351 227.041 66.8351C211.641 66.8351 203.133 55.7841 203.133 41.3861C203.133 25.9001 213.457 16.1201 226.769 16.1201C241.712 16.1201 250.496 28.5271 249.5 44.0131H212.008ZM212.098 36.9481H240.805C240.534 30.0661 235.552 23.1821 226.768 23.1821C219.524 23.1821 212.822 27.1681 212.098 36.9481Z" fill="#E63E3A"/>
<path d="M297.858 33.2361H289.527C288.349 27.4361 283.369 23.3651 276.939 23.3651C269.695 23.3651 262.903 29.0651 262.903 41.2951C262.903 53.6101 269.695 59.5871 276.939 59.5871C279.886 59.6661 282.773 58.7415 285.126 56.9647C287.479 55.188 289.158 52.6645 289.889 49.8081H298.403C296.683 58.9551 288.079 66.8351 276.668 66.8351C262.631 66.8351 253.937 56.2351 253.937 41.3861C253.937 26.8971 263.084 16.1201 277.484 16.1201C282.381 16.0074 287.15 17.6832 290.901 20.8337C294.651 23.9842 297.124 28.3934 297.858 33.2361Z" fill="#E63E3A"/>
<path d="M307.821 4.70898H316.061V16.936H325.298V23.545H316.061V52.435C316.061 57.505 316.423 58.773 321.131 58.773H325.298V65.657H319.321C309.994 65.657 307.821 63.574 307.821 53.433V23.545H300.121V16.936H307.821V4.70898Z" fill="#E63E3A"/>
</svg>
